<?xml version="1.0" encoding="UTF-8" standalone="no"?>
<!-- Uploaded to: SVG Repo, www.svgrepo.com, Generator: SVG Repo Mixer Tools -->

<svg
   height="800px"
   width="800px"
   version="1.1"
   id="Layer_1"
   viewBox="0 0 512 512"
   xml:space="preserve"
   sodipodi:docname="mount-fuji-japan-svgrepo-remake.svg"
   inkscape:version="1.4 (86a8ad7, 2024-10-11)"
   xmlns:inkscape="http://www.inkscape.org/namespaces/inkscape"
   xmlns:sodipodi="http://sodipodi.sourceforge.net/DTD/sodipodi-0.dtd"
   xmlns="http://www.w3.org/2000/svg"
   xmlns:svg="http://www.w3.org/2000/svg"><defs
   id="defs14">

</defs><sodipodi:namedview
   id="namedview14"
   pagecolor="#ffffff"
   bordercolor="#000000"
   borderopacity="0.25"
   inkscape:showpageshadow="2"
   inkscape:pageopacity="0.0"
   inkscape:pagecheckerboard="0"
   inkscape:deskcolor="#d1d1d1"
   inkscape:zoom="0.77"
   inkscape:cx="342.85714"
   inkscape:cy="447.4026"
   inkscape:window-width="1600"
   inkscape:window-height="837"
   inkscape:window-x="-8"
   inkscape:window-y="-8"
   inkscape:window-maximized="1"
   inkscape:current-layer="Layer_1"
   showgrid="false" />

<g
   id="red-sun"><path
     id="circle1"
     style="fill:#f75534"
     d="M 391.83701,223.35699 A 135.83701,135.83701 0 0 1 256,359.194 135.83701,135.83701 0 0 1 120.16299,223.35699 135.83701,135.83701 0 0 1 256,87.519989 135.83701,135.83701 0 0 1 391.83701,223.35699 Z" /><path
     id="path1"
     style="fill:#BD391E;"
     d="m 274.808,352.231 c -75.021,0 -135.837,-60.816 -135.837,-135.837 0,-54.88 32.549,-102.154 79.392,-123.584 -56.712,16.319 -98.201,68.587 -98.201,130.55 0,75.021 60.816,135.837 135.837,135.837 20.14,0 39.254,-4.389 56.444,-12.252 -11.95,3.439 -24.577,5.286 -37.635,5.286 z" /></g><g
   id="cloud3"
   transform="translate(-23.272727,104.72727)"
   style="opacity:0.698;mix-blend-mode:normal"><path
     style="fill:#f7ede3"
     d="m 270.409,168.396 c 0,23.583 -19.132,42.705 -42.715,42.705 H 86.444 c 0,0 -51.357,3.688 -51.357,-33.186 0,-0.888 -0.094,-1.787 -0.094,-2.696 0,-19.905 16.133,-36.049 36.049,-36.049 3.082,0 6.06,0.387 8.913,1.118 3.072,-19.864 20.25,-35.067 40.981,-35.067 3.897,0 7.649,0.554 11.222,1.546 5.538,-21.044 28.912,-38.787 56.414,-35.129 27.052,3.594 46.885,31.211 43.144,54.105 -0.01,0.042 -0.01,0.094 -0.021,0.136 9.394,0.867 17.899,4.786 24.534,10.731 8.705,7.826 14.18,19.163 14.18,31.786 z"
     id="path7" /><g
     id="g16">
	<path
   style="fill:#dbd2ca"
   d="m 53.892,180.473 c 0,-0.822 -0.087,-1.65 -0.087,-2.489 0,-17.288 15.727,-31.256 33.973,-28.068 1.89,0.33 3.693,-0.879 4.151,-2.742 4.661,-18.965 25.153,-31.54 44.607,-28.074 1.738,0.309 3.454,-0.613 4.094,-2.258 9.739,-25.029 30.514,-37.742 54.968,-34.49 14.558,1.936 26.839,11.409 33.878,23.158 -6.031,-16.552 -21.627,-31.305 -40.9,-33.868 -27.502,-3.657 -50.876,14.085 -56.414,35.129 -3.574,-0.993 -7.325,-1.546 -11.222,-1.546 -20.731,0 -37.909,15.203 -40.981,35.067 -2.853,-0.731 -5.831,-1.118 -8.913,-1.118 -19.916,0 -36.049,16.144 -36.049,36.049 0,0.909 0.094,1.806 0.094,2.696 0,36.867 51.357,33.186 51.357,33.186 h 7.317 C 80.386,210.441 53.892,205.917 53.892,180.473 Z"
   id="path15" />
	<path
   style="fill:#dbd2ca"
   d="m 95.877,113.659 c -0.259,0.196 -0.519,0.391 -0.774,0.594 0.213,0.05 0.431,0.089 0.643,0.143 0.038,-0.247 0.089,-0.491 0.131,-0.737 z"
   id="path16" />
</g><path
     style="fill:#dbd2ca"
     d="m 256.23,136.61 c -9.718,-4.044 -22.434,-4.232 -34.022,0.899 -7.889,3.5 -14.179,9.947 -17.575,17.889 -5.872,13.74 -3.981,27.209 2.591,37.376 0.627,0.961 -0.564,2.069 -1.463,1.358 -13.019,-10.282 -19.205,-28.839 -10.585,-47.752 3.396,-7.429 9.425,-13.375 16.875,-16.718 6.541,-2.936 13.26,-4.138 19.665,-3.918 -0.01,0.042 -0.01,0.094 -0.021,0.136 9.394,0.866 17.9,4.785 24.535,10.73 z"
     id="path17" /></g><g
   id="mountain"
   onmouseover=""><path
     style="fill:#7FB2F0;"
     d="M460.069,433.006H51.931c-4.336,0-5.81-5.768-2.017-7.847  c36.279-19.801,131.009-74.585,186.744-135.158c0.794-0.867,1.902-1.348,3.062-1.348h32.559c1.16,0,2.267,0.481,3.062,1.348  c55.735,60.573,150.465,115.357,186.744,135.158C465.878,427.238,464.405,433.006,460.069,433.006z"
     id="path2" /><path
     style="fill:#5F95D4;"
     d="M256,288.653c-56.163,60.082-122.253,115.722-179.331,144.353H51.931  c-4.336,0-5.81-5.768-2.017-7.847c36.279-19.801,131.009-74.585,186.744-135.158c0.794-0.867,1.902-1.348,3.062-1.348L256,288.653  L256,288.653z"
     id="path8" /><path
     style="fill:#F7EDE3;"
     d="M380.75,376.048c-4.859,8.161-9.237,17.115-18.85,17.115c-17.648,0-17.648-30.177-35.286-30.177  c-17.648,0-17.648,30.177-35.297,30.177c-17.659,0-17.659-30.177-35.297-30.177c-17.648,0-17.648,30.177-35.297,30.177  c-17.659,0-17.659-30.177-35.297-30.177c-2.351,0-4.389,0.533-6.196,1.473c-1.818,0.93-3.417,2.267-4.859,3.856  c-7.858,8.662-11.316,24.848-24.242,24.848c-2.56,0-4.744-0.637-6.666-1.724c-0.167-0.094-0.334-0.199-0.502-0.313  c-5.026-3.082-8.234-9.3-11.682-15.099c36.509-24.325,76.267-54.387,105.378-86.026c0.794-0.857,1.902-1.348,3.062-1.348h32.559  c1.16,0,2.267,0.491,3.062,1.348C304.462,321.651,344.231,351.723,380.75,376.048z"
     id="path9" /><path
     style="fill:#dbd2ca"
     d="m 256,288.653 c -35.328,37.784 -74.574,73.822 -113.037,102.473 -5.026,-3.082 -8.234,-9.3 -11.682,-15.099 36.509,-24.325 76.267,-54.387 105.378,-86.026 0.794,-0.857 1.902,-1.348 3.062,-1.348 z"
     id="path13" /><path
     style="fill:#5F95D4;"
     d="M504.163,440.842H7.837c-4.328,0-7.837-3.509-7.837-7.837s3.509-7.837,7.837-7.837h496.327  c4.328,0,7.837,3.509,7.837,7.837S508.491,440.842,504.163,440.842z"
     id="path14" /></g>



<g
   id="cloud2"
   transform="translate(-10.805195,38.233766)"><g
     id="g14"><path
       style="fill:#f7ede3"
       d="m 492.944,257.177 c 0,23.583 -19.132,42.705 -42.715,42.705 h -141.25 c 0,0 -51.357,3.681 -51.357,-33.186 0,-0.89 -0.094,-1.787 -0.094,-2.696 0,-19.905 16.133,-36.049 36.049,-36.049 3.082,0 6.06,0.387 8.913,1.118 3.072,-19.863 20.25,-35.067 40.981,-35.067 3.897,0 7.649,0.554 11.222,1.546 5.538,-21.044 28.912,-38.787 56.414,-35.129 27.105,3.605 46.958,31.316 43.123,54.241 21.714,2.016 38.714,20.271 38.714,42.517 z"
       id="path6" /></g><path
     style="fill:#dbd2ca"
     d="m 276.424,269.25 c 0,-0.822 -0.087,-1.65 -0.087,-2.489 0,-17.288 15.727,-31.256 33.973,-28.068 1.89,0.33 3.693,-0.879 4.151,-2.742 4.661,-18.965 25.153,-31.54 44.607,-28.074 1.738,0.309 3.454,-0.613 4.094,-2.258 9.74,-25.029 30.514,-37.742 54.968,-34.49 14.558,1.936 26.839,11.409 33.878,23.158 -6.031,-16.552 -21.627,-31.305 -40.9,-33.868 -27.502,-3.657 -50.876,14.085 -56.414,35.129 -3.574,-0.993 -7.325,-1.546 -11.222,-1.546 -20.731,0 -37.909,15.203 -40.981,35.067 -2.853,-0.731 -5.831,-1.118 -8.913,-1.118 -19.916,0 -36.049,16.144 -36.049,36.049 0,0.909 0.094,1.806 0.094,2.696 0,36.867 51.357,33.186 51.357,33.186 h 7.317 c -13.379,-0.663 -39.873,-5.186 -39.873,-30.632 z"
     id="path11" /><path
     style="fill:#dbd2ca"
     d="m 478.762,225.389 c -9.718,-4.044 -22.434,-4.232 -34.022,0.899 -7.889,3.5 -14.179,9.947 -17.575,17.889 -5.872,13.74 -3.981,27.209 2.591,37.376 0.627,0.961 -0.564,2.069 -1.463,1.358 -13.019,-10.282 -19.205,-28.839 -10.585,-47.752 3.396,-7.429 9.425,-13.375 16.875,-16.718 6.541,-2.936 13.26,-4.138 19.665,-3.918 -0.01,0.042 -0.01,0.094 -0.021,0.136 9.394,0.866 17.9,4.784 24.535,10.73 z"
     id="path12" /></g><g
   id="cloud1"
   transform="translate(4.1558439,-11.636364)"><path
     style="fill:#f7ede3"
     d="m 270.409,168.396 c 0,23.583 -19.132,42.705 -42.715,42.705 H 86.444 c 0,0 -51.357,3.688 -51.357,-33.186 0,-0.888 -0.094,-1.787 -0.094,-2.696 0,-19.905 16.133,-36.049 36.049,-36.049 3.082,0 6.06,0.387 8.913,1.118 3.072,-19.864 20.25,-35.067 40.981,-35.067 3.897,0 7.649,0.554 11.222,1.546 5.538,-21.044 28.912,-38.787 56.414,-35.129 27.052,3.594 46.885,31.211 43.144,54.105 -0.01,0.042 -0.01,0.094 -0.021,0.136 9.394,0.867 17.899,4.786 24.534,10.731 8.705,7.826 14.18,19.163 14.18,31.786 z"
     id="path3" /><g
     id="g5">
	<path
   style="fill:#dbd2ca"
   d="m 53.892,180.473 c 0,-0.822 -0.087,-1.65 -0.087,-2.489 0,-17.288 15.727,-31.256 33.973,-28.068 1.89,0.33 3.693,-0.879 4.151,-2.742 4.661,-18.965 25.153,-31.54 44.607,-28.074 1.738,0.309 3.454,-0.613 4.094,-2.258 9.739,-25.029 30.514,-37.742 54.968,-34.49 14.558,1.936 26.839,11.409 33.878,23.158 -6.031,-16.552 -21.627,-31.305 -40.9,-33.868 -27.502,-3.657 -50.876,14.085 -56.414,35.129 -3.574,-0.993 -7.325,-1.546 -11.222,-1.546 -20.731,0 -37.909,15.203 -40.981,35.067 -2.853,-0.731 -5.831,-1.118 -8.913,-1.118 -19.916,0 -36.049,16.144 -36.049,36.049 0,0.909 0.094,1.806 0.094,2.696 0,36.867 51.357,33.186 51.357,33.186 h 7.317 C 80.386,210.441 53.892,205.917 53.892,180.473 Z"
   id="path4" />
	<path
   style="fill:#dbd2ca"
   d="m 95.877,113.659 c -0.259,0.196 -0.519,0.391 -0.774,0.594 0.213,0.05 0.431,0.089 0.643,0.143 0.038,-0.247 0.089,-0.491 0.131,-0.737 z"
   id="path5" />
</g><path
     style="fill:#dbd2ca"
     d="m 256.23,136.61 c -9.718,-4.044 -22.434,-4.232 -34.022,0.899 -7.889,3.5 -14.179,9.947 -17.575,17.889 -5.872,13.74 -3.981,27.209 2.591,37.376 0.627,0.961 -0.564,2.069 -1.463,1.358 -13.019,-10.282 -19.205,-28.839 -10.585,-47.752 3.396,-7.429 9.425,-13.375 16.875,-16.718 6.541,-2.936 13.26,-4.138 19.665,-3.918 -0.01,0.042 -0.01,0.094 -0.021,0.136 9.394,0.866 17.9,4.785 24.535,10.73 z"
     id="path10" /></g><g
   id="cloud4"
   transform="translate(-2.4935065,-92.25974)"
   style="opacity:0.705"><g
     id="g18"><path
       style="fill:#f7ede3"
       d="m 492.944,257.177 c 0,23.583 -19.132,42.705 -42.715,42.705 h -141.25 c 0,0 -51.357,3.681 -51.357,-33.186 0,-0.89 -0.094,-1.787 -0.094,-2.696 0,-19.905 16.133,-36.049 36.049,-36.049 3.082,0 6.06,0.387 8.913,1.118 3.072,-19.863 20.25,-35.067 40.981,-35.067 3.897,0 7.649,0.554 11.222,1.546 5.538,-21.044 28.912,-38.787 56.414,-35.129 27.105,3.605 46.958,31.316 43.123,54.241 21.714,2.016 38.714,20.271 38.714,42.517 z"
       id="path18" /></g><path
     style="fill:#dbd2ca"
     d="m 276.424,269.25 c 0,-0.822 -0.087,-1.65 -0.087,-2.489 0,-17.288 15.727,-31.256 33.973,-28.068 1.89,0.33 3.693,-0.879 4.151,-2.742 4.661,-18.965 25.153,-31.54 44.607,-28.074 1.738,0.309 3.454,-0.613 4.094,-2.258 9.74,-25.029 30.514,-37.742 54.968,-34.49 14.558,1.936 26.839,11.409 33.878,23.158 -6.031,-16.552 -21.627,-31.305 -40.9,-33.868 -27.502,-3.657 -50.876,14.085 -56.414,35.129 -3.574,-0.993 -7.325,-1.546 -11.222,-1.546 -20.731,0 -37.909,15.203 -40.981,35.067 -2.853,-0.731 -5.831,-1.118 -8.913,-1.118 -19.916,0 -36.049,16.144 -36.049,36.049 0,0.909 0.094,1.806 0.094,2.696 0,36.867 51.357,33.186 51.357,33.186 h 7.317 c -13.379,-0.663 -39.873,-5.186 -39.873,-30.632 z"
     id="path19" /><path
     style="fill:#dbd2ca"
     d="m 478.762,225.389 c -9.718,-4.044 -22.434,-4.232 -34.022,0.899 -7.889,3.5 -14.179,9.947 -17.575,17.889 -5.872,13.74 -3.981,27.209 2.591,37.376 0.627,0.961 -0.564,2.069 -1.463,1.358 -13.019,-10.282 -19.205,-28.839 -10.585,-47.752 3.396,-7.429 9.425,-13.375 16.875,-16.718 6.541,-2.936 13.26,-4.138 19.665,-3.918 -0.01,0.042 -0.01,0.094 -0.021,0.136 9.394,0.866 17.9,4.784 24.535,10.73 z"
     id="path20" /></g>
     </svg>
